<svg width="114" height="160" viewBox="0 0 114 160" fill="none" xmlns="http://www.w3.org/2000/svg">
<path fill-rule="evenodd" clip-rule="evenodd" d="M12.8613 0H101.173C108.018 0 113.567 5.54925 113.567 12.3946V109.379C113.567 114.046 111.464 118.464 107.841 121.406L62.8772 157.92C59.4625 160.693 54.5716 160.693 51.1569 157.92L6.19302 121.406C2.57029 118.464 0.466675 114.046 0.466675 109.379V12.3946C0.466675 5.54925 6.01593 0 12.8613 0Z" fill="#1273EA"/>
<path fill-rule="evenodd" clip-rule="evenodd" d="M85.6796 18.5919C90.8136 18.5919 94.9755 22.7539 94.9755 27.8879V57.8724L94.9729 58.1177C94.8442 64.2328 89.9117 69.1664 83.797 69.2968L83.5485 69.2995L83.7937 69.3021C89.9089 69.4308 94.8424 74.3633 94.9729 80.478L94.9755 80.7265V99.4828C94.9755 102.151 93.8289 104.691 91.8274 106.456L68.4759 127.044L68.4762 85.0232C68.4762 79.8891 64.3143 75.7272 59.1803 75.7272H45.5579L45.5575 127.044L22.2067 106.456C20.2052 104.691 19.0586 102.151 19.0586 99.4828V27.8879C19.0586 22.7539 23.2205 18.5919 28.3545 18.5919H85.6796ZM68.4762 31.4474H45.5579V60.015H59.1803C64.3143 60.015 68.4762 55.8531 68.4762 50.719V31.4474Z" fill="white"/>
</svg>
